<?xml version="1.0" standalone="no"?>
<!DOCTYPE svg PUBLIC "-//W3C//DTD SVG 20010904//EN"
 "http://www.w3.org/TR/2001/REC-SVG-20010904/DTD/svg10.dtd">
<svg version="1.0" xmlns="http://www.w3.org/2000/svg"
 width="316.000000pt" height="316.000000pt" viewBox="0 0 316.000000 316.000000"
 preserveAspectRatio="xMidYMid meet">
<metadata>
Created by potrace 1.14, written by Peter Selinger 2001-2017
</metadata>
<g transform="translate(0.000000,316.000000) scale(0.100000,-0.100000)"
fill="#000000" stroke="none">
<path d="M1673 3087 c0 -7 9 -14 19 -14 10 -1 18 3 18 9 0 6 -3 8 -7 5 -3 -4
-11 -2 -18 3 -8 7 -12 6 -12 -3z"/>
<path d="M1340 3080 c0 -5 5 -10 11 -10 5 0 7 5 4 10 -3 6 -8 10 -11 10 -2 0
-4 -4 -4 -10z"/>
<path d="M1416 3078 c3 -4 12 -8 20 -8 8 0 14 4 14 8 0 4 -9 8 -19 8 -11 0
-17 -4 -15 -8z"/>
<path d="M1530 3080 c0 -5 3 -9 8 -7 4 1 9 -2 12 -7 3 -5 -7 -10 -22 -10 -16
-1 -28 2 -28 6 0 4 -5 8 -11 8 -5 0 -7 -6 -3 -12 5 -8 0 -7 -11 2 -15 12 -17
12 -10 1 6 -11 4 -13 -8 -8 -10 3 -17 2 -17 -3 0 -12 -41 -9 -59 4 -11 8 -13
8 -7 -1 5 -9 0 -13 -14 -13 -12 0 -18 5 -15 10 3 6 1 10 -4 10 -10 0 -15 -14
-12 -32 0 -4 -6 -5 -14 -2 -8 4 -15 10 -15 15 0 5 -4 9 -10 9 -5 0 -6 -7 -3
-17 4 -11 3 -14 -6 -9 -6 4 -18 2 -26 -4 -12 -10 -19 -10 -32 1 -15 12 -16 12
-10 -3 4 -13 1 -16 -14 -13 -10 2 -19 -1 -19 -7 0 -5 -6 -8 -14 -5 -7 3 -23
-1 -35 -9 -12 -9 -21 -11 -21 -5 0 6 -5 11 -11 11 -5 0 -8 -4 -5 -9 7 -11 -41
-30 -77 -29 -16 0 -34 -5 -40 -11 -9 -10 -6 -10 16 -2 17 7 27 7 27 1 0 -6 -9
-10 -20 -10 -30 0 -33 -1 -55 -16 -26 -18 -41 -18 -25 1 7 9 8 15 2 15 -15 0
-22 -26 -10 -38 8 -8 5 -11 -9 -9 -12 0 -20 6 -19 12 1 5 -2 0 -8 -12 -5 -13
-13 -23 -18 -23 -14 0 -22 -5 -47 -28 -13 -12 -26 -20 -29 -18 -2 3 -15 -7
-28 -22 -19 -22 -23 -24 -24 -9 0 9 -4 17 -9 17 -5 0 -7 -8 -5 -17 2 -11 -9
-28 -28 -43 -18 -14 -29 -19 -25 -13 5 7 3 21 -3 30 -7 12 -10 13 -7 3 8 -27
-11 -60 -29 -53 -13 5 -16 3 -11 -10 3 -9 2 -19 -3 -22 -6 -4 -10 1 -10 9 0
20 -17 29 -26 15 -4 -8 -3 -9 4 -5 8 5 12 0 12 -13 0 -27 -32 -44 -50 -28 -11
10 -11 8 0 -6 12 -16 10 -21 -13 -41 -15 -13 -23 -27 -19 -32 4 -5 -4 0 -17
11 -14 11 -21 15 -18 8 4 -6 4 -13 0 -16 -5 -2 -2 -2 5 -1 19 5 13 -19 -13
-48 -25 -29 -47 -40 -25 -13 17 20 1 38 -20 24 -13 -9 -12 -10 3 -5 24 8 21
-9 -6 -28 -12 -8 -15 -13 -6 -10 10 3 20 0 25 -7 4 -8 3 -10 -4 -5 -8 4 -16
-3 -22 -18 -10 -28 -27 -30 -48 -6 -11 13 -11 11 -2 -7 8 -17 8 -23 0 -23 -7
0 -9 -8 -5 -21 5 -16 4 -19 -5 -14 -8 5 -11 4 -7 -2 4 -6 0 -25 -9 -42 -14
-29 -17 -30 -28 -15 -10 13 -15 14 -21 4 -5 -8 -4 -11 2 -7 6 4 13 -2 16 -14
4 -17 2 -19 -16 -13 -22 6 -22 6 -2 -9 11 -9 16 -19 12 -23 -4 -5 -12 -2 -17
6 -8 13 -10 12 -10 -2 0 -10 4 -18 10 -18 6 0 5 -10 -2 -25 -6 -14 -15 -25
-20 -25 -5 0 -6 -4 -3 -10 3 -5 1 -10 -5 -10 -6 0 -9 -4 -5 -9 3 -5 1 -12 -5
-16 -6 -4 -7 -11 -4 -17 5 -7 1 -9 -9 -5 -21 8 -29 -5 -15 -23 8 -12 8 -11 3
5 -5 16 -4 18 6 8 10 -10 10 -16 1 -25 -7 -7 -12 -21 -12 -31 0 -16 -3 -17
-14 -8 -11 9 -16 9 -22 0 -4 -8 -3 -9 4 -5 7 4 12 4 13 -1 0 -4 2 -16 4 -25 2
-11 -2 -15 -11 -11 -8 3 -11 10 -7 16 4 6 1 7 -6 2 -9 -5 -9 -11 -3 -17 6 -6
8 -17 5 -26 -4 -9 -2 -13 4 -9 5 3 10 0 10 -8 0 -8 -7 -17 -14 -19 -8 -3 -12
-2 -9 3 3 5 -1 11 -9 15 -8 3 -17 0 -21 -6 -4 -6 -3 -8 3 -5 12 8 26 -17 28
-50 1 -22 -17 -38 -29 -26 -11 11 -6 24 6 17 7 -5 8 -3 3 5 -5 9 -10 10 -18 2
-12 -12 10 -44 24 -35 16 10 9 -9 -8 -23 -10 -8 -12 -12 -5 -8 7 4 12 0 12
-10 0 -10 -5 -14 -12 -10 -7 4 -5 0 5 -8 14 -11 15 -16 4 -20 -10 -4 -13 -31
-12 -111 1 -81 -2 -106 -12 -111 -8 -2 -12 -9 -9 -14 4 -5 0 -12 -6 -14 -10
-4 -10 -6 0 -6 7 -1 10 -6 6 -13 -4 -6 -3 -8 4 -4 6 3 9 16 7 28 -3 11 -1 18
2 14 4 -4 8 -23 8 -42 0 -26 -3 -33 -15 -29 -8 4 -11 3 -7 -1 4 -4 2 -12 -3
-19 -7 -8 -5 -12 5 -12 8 0 12 4 9 9 -3 4 0 8 5 8 12 0 15 -23 4 -34 -12 -12
-11 -35 1 -30 16 6 17 -26 2 -45 -8 -11 -8 -13 0 -8 11 6 21 -15 31 -67 2 -11
6 -22 8 -24 3 -3 -3 -10 -12 -17 -13 -9 -13 -14 -3 -20 9 -5 11 -4 6 3 -4 7
-2 10 7 6 9 -3 13 -16 11 -35 -3 -22 0 -28 9 -23 7 5 5 0 -3 -11 -9 -11 -10
-16 -2 -11 7 4 12 2 12 -4 0 -6 4 -9 9 -6 5 4 7 -3 4 -15 -3 -11 -12 -23 -20
-26 -12 -5 -12 -7 -1 -14 7 -5 18 -9 23 -9 6 0 4 4 -3 9 -10 6 -10 10 3 21 13
11 15 10 9 -4 -3 -9 -1 -16 4 -16 6 0 9 -14 7 -30 -3 -18 0 -28 5 -25 6 4 10
-3 10 -14 0 -12 -5 -21 -12 -21 -6 0 -8 -3 -5 -6 4 -4 13 -2 21 5 11 9 15 8
19 -4 7 -16 -25 -39 -38 -27 -5 4 -5 1 -1 -6 5 -8 13 -9 26 -2 25 13 30 13 30
-5 0 -8 9 -25 20 -37 10 -13 19 -27 19 -32 0 -5 5 -12 12 -17 10 -6 10 -11 -2
-25 -13 -15 -12 -16 11 -9 23 7 24 7 10 -10 -14 -17 -13 -18 4 -12 16 6 17 5
6 -8 -11 -13 -10 -14 5 -9 12 5 16 4 12 -3 -4 -6 0 -16 9 -23 8 -7 12 -20 9
-28 -4 -12 -3 -13 10 -2 18 15 20 0 3 -19 -10 -11 -10 -13 0 -7 7 4 12 1 12
-8 0 -9 4 -16 10 -16 5 0 7 8 4 18 -3 9 2 4 12 -13 9 -16 31 -42 48 -57 17
-15 25 -27 19 -28 -7 0 -13 -5 -13 -11 0 -5 5 -7 10 -4 14 9 12 -9 -2 -24 -11
-10 -10 -11 5 -6 9 4 17 11 17 17 0 5 7 3 15 -6 18 -18 20 -30 3 -20 -8 5 -8
1 2 -12 22 -29 24 -30 17 -11 -5 13 -3 17 5 14 7 -2 12 -10 10 -16 -1 -7 2 -9
8 -6 14 9 52 -24 44 -37 -3 -5 2 -8 12 -6 15 2 19 -3 18 -25 -1 -15 3 -27 8
-27 6 0 8 7 5 15 -4 8 -1 17 5 21 6 4 8 3 5 -3 -4 -5 5 -16 18 -23 14 -7 25
-17 25 -22 0 -5 6 -6 13 -2 9 6 9 5 0 -7 -11 -13 -9 -15 10 -15 18 1 22 -4 19
-24 -1 -14 1 -20 5 -15 14 18 43 17 43 -2 0 -13 3 -14 8 -5 7 9 15 7 34 -11
14 -13 33 -22 42 -21 9 1 19 -3 23 -8 3 -7 1 -8 -5 -4 -7 4 -12 5 -12 2 0 -3
10 -10 21 -17 17 -9 20 -8 14 3 -6 9 -5 10 4 2 6 -6 13 -21 16 -34 2 -12 7
-25 11 -29 3 -3 4 3 2 13 -2 14 5 21 26 27 15 4 25 5 22 2 -9 -10 14 -32 28
-27 6 2 21 -4 33 -15 16 -15 23 -17 33 -8 10 9 12 8 7 -5 -4 -12 0 -15 19 -13
13 1 24 -2 24 -7 0 -5 10 -8 22 -6 12 2 23 -3 25 -12 4 -13 3 -13 -6 0 -7 9
-11 10 -11 3 0 -19 20 -26 26 -9 3 9 11 13 18 9 6 -4 20 -9 31 -10 10 -2 22
-8 26 -14 5 -8 8 -8 13 0 4 6 12 11 18 11 6 0 2 -10 -10 -23 -12 -13 -22 -27
-22 -33 0 -5 5 -1 11 9 6 9 15 14 21 11 6 -4 8 -3 5 3 -4 6 5 15 18 21 22 10
25 9 25 -8 0 -11 4 -20 10 -20 5 0 7 6 4 14 -7 18 12 30 22 15 5 -8 3 -9 -6
-4 -9 5 -11 4 -6 -4 6 -9 11 -9 22 0 8 6 14 7 14 2 0 -5 20 -8 44 -6 35 3 49
-1 64 -18 18 -19 20 -19 19 -2 -2 13 6 18 28 20 17 0 36 2 43 2 7 1 11 4 9 8
-3 5 5 8 18 8 13 0 21 -3 18 -7 -2 -5 1 -8 7 -8 6 0 8 -5 4 -12 -4 -7 -3 -8 4
-4 6 4 8 14 5 24 -5 14 -3 15 7 5 9 -8 19 -9 31 -3 11 7 20 7 24 0 3 -5 14
-10 23 -9 11 0 12 3 5 6 -21 8 -14 20 10 18 12 -2 27 -4 32 -5 20 -5 36 0 30
9 -3 6 3 10 12 9 10 0 37 6 60 15 22 9 43 13 46 10 3 -2 16 3 30 12 15 10 28
12 31 6 4 -5 -2 -12 -11 -14 -17 -4 -17 -5 0 -6 11 -1 15 -6 11 -13 -4 -6 -3
-8 4 -5 5 4 9 18 7 32 -1 14 2 25 6 25 5 0 9 -5 9 -12 0 -6 6 -3 14 8 15 19
15 19 30 -1 l15 -20 -5 20 c-6 26 42 51 63 33 11 -9 12 -7 7 7 -5 13 -4 16 4
11 7 -4 15 -1 18 8 3 9 10 14 14 11 5 -3 13 3 19 12 6 10 11 15 11 10 0 -10
51 23 71 47 12 15 18 16 24 6 5 -9 4 -11 -3 -6 -8 5 -10 1 -5 -10 4 -11 8 -13
11 -6 2 7 9 9 15 6 8 -5 8 -2 0 7 -17 17 -16 29 1 29 8 0 16 7 20 15 3 9 12
12 22 8 13 -5 15 -3 9 8 -4 8 -5 11 -1 7 5 -4 19 5 32 20 13 15 24 21 24 15 0
-7 -5 -13 -12 -13 -6 0 -8 -3 -5 -6 11 -12 36 17 30 34 -3 9 -3 14 2 10 4 -4
14 0 23 8 8 9 23 13 34 11 10 -3 16 -1 13 3 -3 5 -2 10 2 13 5 2 3 2 -4 1 -7
-2 -10 3 -6 12 6 17 15 18 30 3 8 -8 13 -7 18 2 5 8 4 10 -3 5 -15 -9 -15 -1
-2 25 6 10 19 19 30 19 10 0 22 5 26 11 4 8 -1 9 -17 5 -23 -7 -23 -6 -5 8 10
9 22 13 27 11 4 -3 11 0 15 6 4 8 3 9 -4 5 -7 -4 -12 -2 -12 3 0 6 6 11 14 11
8 0 18 5 22 12 5 8 2 9 -10 5 -11 -4 -15 -3 -10 4 3 6 15 8 26 6 15 -4 17 -3
8 9 -19 21 15 52 41 36 14 -9 20 -9 25 1 4 6 4 9 -1 5 -4 -4 -14 -3 -21 3 -11
9 -11 15 1 33 8 13 13 25 10 28 -3 2 5 4 18 3 12 -2 21 -8 19 -14 -1 -7 3 -9
9 -6 7 5 8 10 0 18 -7 7 -5 14 7 24 15 12 14 13 -6 3 -13 -7 -26 -9 -30 -6 -3
3 0 6 7 6 7 0 9 5 6 10 -4 6 -1 9 7 8 8 -2 13 6 12 19 -1 13 3 20 8 17 4 -3
13 8 19 25 6 18 18 31 27 31 13 0 14 2 4 8 -7 5 -10 16 -6 25 5 14 10 15 27 5
22 -11 22 -11 4 10 -20 22 -14 47 9 38 7 -3 16 0 20 6 4 6 3 8 -4 4 -6 -3 -13
-2 -17 4 -3 5 -1 10 5 10 6 0 10 8 8 18 -1 9 1 23 5 29 5 7 10 23 12 35 3 12
10 26 16 32 9 8 10 8 5 -1 -5 -9 -2 -11 10 -6 14 5 13 8 -7 19 -13 7 -18 13
-11 14 6 0 12 11 12 25 0 24 10 32 24 18 10 -11 37 -12 30 -2 -3 5 -9 7 -14 4
-5 -3 -12 0 -16 6 -9 16 -14 60 -6 55 4 -2 16 3 27 11 19 15 19 15 -5 8 -25
-8 -25 -8 -6 14 11 11 16 24 13 28 -4 3 -7 1 -7 -5 0 -7 -4 -12 -9 -12 -4 0
-6 11 -3 25 2 14 9 25 14 25 5 0 6 -6 2 -12 -4 -7 -3 -9 1 -5 12 10 15 38 4
31 -5 -3 -9 6 -9 20 0 14 5 28 10 31 6 3 10 11 10 17 0 7 -4 7 -14 -1 -11 -9
-12 -6 -8 14 2 14 8 28 13 31 5 3 9 10 9 15 0 6 -4 8 -9 4 -6 -3 -6 7 0 27 6
23 5 34 -3 39 -22 14 -1 21 24 9 23 -11 23 -11 3 7 -28 24 -54 59 -37 49 15
-9 16 6 0 22 -8 8 -8 12 -1 12 6 0 18 -10 27 -22 16 -23 16 -23 4 5 -6 15 -14
27 -18 27 -9 0 -11 61 -2 74 12 20 10 33 -5 32 -15 -1 -23 19 -25 54 0 17 -26
98 -36 114 -9 15 -3 58 11 76 7 8 0 6 -13 -5 -14 -11 -22 -16 -18 -11 4 5 3
17 -2 27 -8 14 -6 20 7 28 10 5 21 8 25 8 3 -1 10 1 14 5 8 8 -21 4 -51 -8
-17 -6 -18 -5 -8 7 9 11 7 19 -7 36 -9 12 -19 21 -21 20 -2 -1 -3 0 -2 2 2 2
-3 11 -10 19 -9 13 -9 14 1 8 22 -13 13 6 -14 26 -14 11 -23 26 -20 34 3 7 1
16 -5 20 -7 4 -6 10 1 19 8 9 0 19 -30 39 -23 15 -38 31 -35 36 3 5 -5 18 -17
30 -13 12 -24 25 -24 31 -1 5 -2 13 -3 19 0 5 -9 7 -18 4 -17 -5 -17 -5 0 6
20 13 14 32 -8 24 -15 -6 -50 40 -41 55 3 5 -4 7 -16 4 -23 -4 -23 -4 1 10 15
9 20 17 12 21 -6 4 -11 3 -11 -2 0 -5 -7 -9 -15 -9 -9 0 -14 6 -11 13 3 9 -1
11 -12 8 -11 -4 -8 2 8 16 14 12 19 19 12 15 -7 -4 -23 1 -35 12 l-22 18 19
-22 c16 -20 17 -23 3 -23 -9 0 -18 9 -22 20 -3 11 -12 19 -18 17 -7 -1 -11 5
-9 15 2 12 -3 15 -20 11 -18 -4 -20 -3 -8 6 13 9 12 11 -3 11 -10 0 -25 6 -33
14 -16 17 -19 30 -4 21 6 -3 10 -2 10 3 0 13 -27 23 -44 16 -8 -3 -20 4 -28
15 -8 12 -18 18 -21 14 -4 -3 -7 -1 -7 5 0 5 6 13 13 16 6 3 0 3 -15 0 -23 -5
-31 -1 -45 25 -19 33 -28 37 -38 21 -4 -6 -1 -9 6 -8 6 2 14 -4 16 -12 4 -12
3 -12 -5 -2 -5 8 -12 13 -16 13 -3 -1 -18 6 -31 15 -24 16 -25 18 -10 43 l16
26 -23 -27 -23 -27 -23 26 c-19 22 -25 24 -33 12 -7 -12 -9 -12 -9 0 0 8 -3
11 -7 8 -3 -4 -15 0 -25 10 -10 9 -18 13 -18 9 0 -4 -10 -2 -21 5 -17 9 -19
13 -8 20 11 7 11 9 1 9 -7 0 -15 -7 -18 -15 -4 -8 -10 -12 -15 -9 -5 3 -6 11
-2 17 9 15 14 41 6 33 -4 -3 -13 0 -22 6 -11 9 -11 7 2 -8 16 -19 16 -22 2
-28 -9 -3 -24 3 -35 14 -21 21 -35 27 -25 10 3 -5 -1 -10 -10 -10 -11 0 -15 5
-11 15 4 13 2 14 -14 5 -15 -8 -20 -8 -20 2 0 9 -3 9 -11 1 -14 -14 -62 14
-55 32 3 8 -4 10 -22 6 -19 -3 -22 -6 -9 -9 27 -6 20 -20 -8 -14 -24 4 -46 22
-27 22 5 0 9 7 9 16 0 13 -4 12 -16 -5 -16 -21 -71 -27 -71 -8 0 5 8 6 18 2
13 -5 14 -4 5 6 -8 8 -17 9 -25 3 -7 -5 -38 -9 -68 -9 -46 0 -55 3 -54 18 1 9
-3 14 -8 11 -5 -3 -7 -12 -4 -20 8 -21 -7 -17 -22 6 -13 21 -32 27 -32 10z
m940 -324 c0 -3 -4 -8 -10 -11 -5 -3 -10 -1 -10 4 0 6 5 11 10 11 6 0 10 -2
10 -4z m-2085 -336 c-3 -5 -11 -10 -16 -10 -6 0 -7 5 -4 10 3 6 11 10 16 10 6
0 7 -4 4 -10z m2455 -86 c0 -2 -7 -4 -15 -4 -8 0 -15 4 -15 10 0 5 7 7 15 4 8
-4 15 -8 15 -10z m75 -174 c3 -5 1 -10 -4 -10 -6 0 -11 5 -11 10 0 6 2 10 4
10 3 0 8 -4 11 -10z m105 -334 c0 -11 -19 -15 -25 -6 -3 5 1 10 9 10 9 0 16
-2 16 -4z m-2020 -1520 c0 -3 -4 -8 -10 -11 -5 -3 -10 -1 -10 4 0 6 5 11 10
11 6 0 10 -2 10 -4z"/>
<path d="M1640 3070 c-9 -6 -10 -10 -3 -10 6 0 15 5 18 10 8 12 4 12 -15 0z"/>
<path d="M1255 3060 c-3 -5 -1 -10 4 -10 6 0 11 5 11 10 0 6 -2 10 -4 10 -3 0
-8 -4 -11 -10z"/>
<path d="M1390 3060 c0 -5 5 -10 10 -10 6 0 10 5 10 10 0 6 -4 10 -10 10 -5 0
-10 -4 -10 -10z"/>
<path d="M1915 3051 c-3 -6 5 -15 17 -21 21 -10 21 -10 6 3 -10 8 -15 17 -11
20 3 4 4 7 0 7 -3 0 -8 -4 -12 -9z"/>
<path d="M1227 3039 c7 -7 15 -10 18 -7 3 3 -2 9 -12 12 -14 6 -15 5 -6 -5z"/>
<path d="M1165 3019 c-4 -6 -5 -12 -2 -15 2 -3 7 2 10 11 7 17 1 20 -8 4z"/>
<path d="M1895 3020 c3 -5 8 -10 11 -10 2 0 4 5 4 10 0 6 -5 10 -11 10 -5 0
-7 -4 -4 -10z"/>
<path d="M1115 3000 c3 -5 8 -10 11 -10 2 0 4 5 4 10 0 6 -5 10 -11 10 -5 0
-7 -4 -4 -10z"/>
<path d="M999 2973 c-13 -17 -13 -17 6 -3 11 8 22 16 24 17 2 2 0 3 -6 3 -6 0
-17 -8 -24 -17z"/>
<path d="M960 2960 c-9 -6 -10 -10 -3 -10 6 0 15 5 18 10 8 12 4 12 -15 0z"/>
<path d="M2140 2956 c0 -8 4 -17 9 -20 5 -4 7 3 4 14 -6 23 -13 26 -13 6z"/>
<path d="M2234 2932 c3 -5 0 -13 -6 -15 -9 -4 -10 -6 -1 -6 17 -1 25 16 12 25
-7 4 -9 3 -5 -4z"/>
<path d="M853 2905 c0 -8 4 -12 9 -9 5 3 6 10 3 15 -9 13 -12 11 -12 -6z"/>
<path d="M2275 2891 c-6 -11 13 -26 22 -17 4 3 1 6 -6 6 -7 0 -9 5 -6 10 3 6
4 10 1 10 -3 0 -7 -4 -11 -9z"/>
<path d="M800 2880 c-12 -7 -10 -9 7 -7 12 0 19 5 17 9 -6 10 -6 10 -24 -2z"/>
<path d="M783 2835 c0 -8 4 -12 9 -9 4 3 8 9 8 15 0 5 -4 9 -8 9 -5 0 -9 -7
-9 -15z"/>
<path d="M733 2825 c0 -8 4 -12 9 -9 5 3 6 10 3 15 -9 13 -12 11 -12 -6z"/>
<path d="M2430 2795 c0 -8 4 -15 8 -15 5 0 9 7 9 15 0 8 -4 15 -9 15 -4 0 -8
-7 -8 -15z"/>
<path d="M2510 2740 c-13 -8 -12 -10 3 -10 9 0 17 5 17 10 0 12 -1 12 -20 0z"/>
<path d="M620 2731 c0 -6 4 -13 10 -16 6 -3 7 1 4 9 -7 18 -14 21 -14 7z"/>
<path d="M515 2630 c-3 -5 -1 -10 4 -10 6 0 11 5 11 10 0 6 -2 10 -4 10 -3 0
-8 -4 -11 -10z"/>
<path d="M2680 2541 c0 -6 4 -13 10 -16 6 -3 7 1 4 9 -7 18 -14 21 -14 7z"/>
<path d="M2747 2479 c7 -7 15 -10 18 -7 3 3 -2 9 -12 12 -14 6 -15 5 -6 -5z"/>
<path d="M2746 2448 c3 -5 10 -6 15 -3 13 9 11 12 -6 12 -8 0 -12 -4 -9 -9z"/>
<path d="M2780 2438 c0 -4 4 -8 9 -8 6 0 12 4 15 8 3 5 -1 9 -9 9 -8 0 -15 -4
-15 -9z"/>
<path d="M310 2395 c5 -7 7 -15 3 -18 -3 -4 -1 -7 5 -7 6 0 10 8 9 18 0 10 -7
19 -14 19 -9 0 -10 -4 -3 -12z"/>
<path d="M2805 2400 c-4 -6 -11 -7 -17 -4 -7 4 -8 2 -4 -4 10 -16 23 -15 30 3
6 17 0 20 -9 5z"/>
<path d="M2853 2297 c0 -13 7 -29 17 -34 13 -9 17 -8 17 2 0 8 -5 13 -10 12
-5 -1 -11 6 -12 16 -5 29 -12 31 -12 4z"/>
<path d="M250 2251 c13 -10 13 -12 0 -20 -8 -5 -18 -7 -24 -4 -5 3 -6 1 -2 -5
5 -9 13 -9 27 -1 22 11 21 30 -2 37 -11 3 -11 2 1 -7z"/>
<path d="M2910 2213 c5 -2 8 -9 4 -14 -3 -5 0 -9 6 -9 15 0 7 23 -8 26 -7 1
-8 0 -2 -3z"/>
<path d="M220 2170 c-9 -6 -10 -10 -3 -10 6 0 15 5 18 10 8 12 4 12 -15 0z"/>
<path d="M190 2099 c0 -5 5 -7 10 -4 6 3 10 8 10 11 0 2 -4 4 -10 4 -5 0 -10
-5 -10 -11z"/>
<path d="M2971 2048 c-1 -20 14 -24 25 -6 4 6 3 8 -4 4 -5 -3 -13 0 -15 6 -3
8 -6 6 -6 -4z"/>
<path d="M2965 2008 c18 -30 44 -44 41 -23 -1 8 -6 18 -11 22 -4 4 -5 2 -1 -4
12 -21 -4 -15 -25 10 l-20 22 16 -27z"/>
<path d="M2980 1961 c0 -6 4 -13 10 -16 6 -3 7 1 4 9 -7 18 -14 21 -14 7z"/>
<path d="M3010 1940 c0 -5 5 -10 11 -10 5 0 7 5 4 10 -3 6 -8 10 -11 10 -2 0
-4 -4 -4 -10z"/>
<path d="M2997 1884 c7 -20 29 -23 29 -5 0 9 -8 17 -17 17 -9 0 -15 -6 -12
-12z"/>
<path d="M106 1882 c-3 -5 1 -9 9 -9 8 0 12 4 9 9 -3 4 -7 8 -9 8 -2 0 -6 -4
-9 -8z"/>
<path d="M120 1810 c-9 -6 -10 -10 -3 -10 6 0 15 5 18 10 8 12 4 12 -15 0z"/>
<path d="M3030 1779 c0 -5 5 -7 10 -4 6 3 10 8 10 11 0 2 -4 4 -10 4 -5 0 -10
-5 -10 -11z"/>
<path d="M100 1760 c0 -5 5 -10 11 -10 5 0 7 5 4 10 -3 6 -8 10 -11 10 -2 0
-4 -4 -4 -10z"/>
<path d="M3040 1760 c-9 -6 -10 -10 -3 -10 6 0 15 5 18 10 8 12 4 12 -15 0z"/>
<path d="M3020 1686 c0 -2 8 -10 18 -17 15 -13 16 -12 3 4 -13 16 -21 21 -21
13z"/>
<path d="M107 1630 c10 -11 19 -20 21 -20 1 0 -2 9 -8 20 -6 11 -15 20 -20 20
-6 0 -2 -9 7 -20z"/>
<path d="M3037 1603 c-11 -11 -8 -21 9 -27 13 -5 14 -4 6 7 -7 8 -9 17 -5 20
3 4 4 7 1 7 -2 0 -8 -3 -11 -7z"/>
<path d="M3037 1543 c-10 -10 -8 -23 4 -23 5 0 8 4 5 9 -4 5 0 12 6 14 7 3 8
6 2 6 -6 1 -14 -2 -17 -6z"/>
<path d="M3026 1463 c-6 -14 -5 -15 5 -6 7 7 10 15 7 18 -3 3 -9 -2 -12 -12z"/>
<path d="M110 1398 c0 -4 4 -8 9 -8 6 0 12 4 15 8 3 5 -1 9 -9 9 -8 0 -15 -4
-15 -9z"/>
<path d="M134 1334 c0 -25 10 -32 21 -14 3 6 1 10 -5 10 -6 0 -9 4 -5 9 3 5 2
12 -3 15 -4 2 -8 -6 -8 -20z"/>
<path d="M2995 1300 c3 -5 8 -10 11 -10 2 0 4 5 4 10 0 6 -5 10 -11 10 -5 0
-7 -4 -4 -10z"/>
<path d="M145 1289 c-4 -6 -5 -12 -2 -15 2 -3 7 2 10 11 7 17 1 20 -8 4z"/>
<path d="M2984 1230 c0 -13 4 -16 10 -10 7 7 7 13 0 20 -6 6 -10 3 -10 -10z"/>
<path d="M156 1187 c3 -10 9 -15 12 -12 3 3 0 11 -7 18 -10 9 -11 8 -5 -6z"/>
<path d="M175 1151 c-3 -5 0 -13 6 -17 7 -4 9 -3 5 4 -3 5 0 13 6 15 9 4 10 6
1 6 -6 1 -14 -3 -18 -8z"/>
<path d="M215 1080 c3 -5 8 -10 11 -10 2 0 4 5 4 10 0 6 -5 10 -11 10 -5 0 -7
-4 -4 -10z"/>
<path d="M2880 996 c0 -2 7 -7 16 -10 8 -3 12 -2 9 4 -6 10 -25 14 -25 6z"/>
<path d="M2896 955 c-9 -26 -7 -32 5 -12 6 10 9 21 6 23 -2 3 -7 -2 -11 -11z"/>
<path d="M283 933 c9 -2 15 -9 11 -14 -3 -5 -2 -9 3 -8 19 3 23 -2 14 -19 -7
-14 -6 -19 4 -19 8 0 13 8 12 18 -4 25 -27 49 -46 48 -13 -1 -13 -2 2 -6z"/>
<path d="M2856 913 c-6 -14 -5 -15 5 -6 7 7 10 15 7 18 -3 3 -9 -2 -12 -12z"/>
<path d="M2830 896 c0 -2 8 -10 18 -17 15 -13 16 -12 3 4 -13 16 -21 21 -21
13z"/>
<path d="M333 815 c0 -8 4 -12 9 -9 5 3 6 10 3 15 -9 13 -12 11 -12 -6z"/>
<path d="M355 791 c-3 -5 -2 -12 3 -15 5 -3 9 1 9 9 0 17 -3 19 -12 6z"/>
<path d="M380 780 c0 -5 5 -10 11 -10 5 0 7 5 4 10 -3 6 -8 10 -11 10 -2 0 -4
-4 -4 -10z"/>
<path d="M2737 753 c-10 -9 -9 -23 1 -23 5 0 9 7 9 15 0 17 -1 18 -10 8z"/>
<path d="M410 700 c0 -5 5 -10 11 -10 5 0 7 5 4 10 -3 6 -8 10 -11 10 -2 0 -4
-4 -4 -10z"/>
<path d="M439 683 c-13 -16 -12 -17 4 -4 9 7 17 15 17 17 0 8 -8 3 -21 -13z"/>
<path d="M455 671 c-6 -11 13 -26 22 -17 4 3 1 6 -6 6 -7 0 -9 5 -6 10 3 6 4
10 1 10 -3 0 -7 -4 -11 -9z"/>
<path d="M2691 647 c-13 -21 -12 -21 5 -5 10 10 16 20 13 22 -3 3 -11 -5 -18
-17z"/>
<path d="M494 652 c3 -5 0 -13 -6 -15 -9 -4 -10 -6 -1 -6 17 -1 25 16 12 25
-7 4 -9 3 -5 -4z"/>
<path d="M2631 604 c0 -11 3 -14 6 -6 3 7 2 16 -1 19 -3 4 -6 -2 -5 -13z"/>
<path d="M530 561 c0 -6 4 -13 10 -16 6 -3 7 1 4 9 -7 18 -14 21 -14 7z"/>
<path d="M614 521 c0 -11 5 -17 13 -14 10 4 11 9 2 19 -15 18 -15 18 -15 -5z"/>
<path d="M2536 531 c-4 -5 -2 -12 3 -15 5 -4 12 -2 15 3 4 5 2 12 -3 15 -5 4
-12 2 -15 -3z"/>
<path d="M580 519 c0 -5 5 -7 10 -4 6 3 10 8 10 11 0 2 -4 4 -10 4 -5 0 -10
-5 -10 -11z"/>
<path d="M655 489 c-4 -6 -5 -12 -2 -15 2 -3 7 2 10 11 7 17 1 20 -8 4z"/>
<path d="M2515 480 c3 -5 8 -10 11 -10 2 0 4 5 4 10 0 6 -5 10 -11 10 -5 0 -7
-4 -4 -10z"/>
<path d="M2466 458 c3 -5 10 -6 15 -3 13 9 11 12 -6 12 -8 0 -12 -4 -9 -9z"/>
<path d="M700 435 c0 -8 2 -15 4 -15 2 0 6 7 10 15 3 8 1 15 -4 15 -6 0 -10
-7 -10 -15z"/>
<path d="M2402 430 c-9 -14 -9 -21 0 -26 6 -4 8 -3 4 4 -3 6 1 15 10 20 9 5
12 12 7 15 -5 3 -14 -3 -21 -13z"/>
<path d="M753 385 c0 -8 4 -12 9 -9 5 3 6 10 3 15 -9 13 -12 11 -12 -6z"/>
<path d="M800 366 c0 -2 8 -10 18 -17 15 -13 16 -12 3 4 -13 16 -21 21 -21 13z"/>
<path d="M2296 347 c3 -10 9 -15 12 -12 3 3 0 11 -7 18 -10 9 -11 8 -5 -6z"/>
<path d="M2333 335 c0 -8 4 -12 9 -9 5 3 6 10 3 15 -9 13 -12 11 -12 -6z"/>
<path d="M2264 326 c-16 -13 -17 -17 -5 -28 12 -11 13 -11 6 0 -4 8 0 19 11
27 11 8 16 15 13 15 -3 0 -14 -6 -25 -14z"/>
<path d="M913 285 c0 -8 4 -12 9 -9 5 3 6 10 3 15 -9 13 -12 11 -12 -6z"/>
<path d="M2170 281 c0 -6 4 -12 8 -15 5 -3 9 1 9 9 0 8 -4 15 -9 15 -4 0 -8
-4 -8 -9z"/>
<path d="M1033 253 c0 -11 7 -20 14 -20 10 0 10 4 1 16 -7 9 -13 18 -15 20 -1
2 -1 -5 0 -16z"/>
<path d="M2096 242 c-2 -4 4 -8 14 -8 10 0 16 4 14 8 -3 4 -9 8 -14 8 -5 0
-11 -4 -14 -8z"/>
<path d="M1958 218 c-34 -12 -36 -23 -6 -25 18 -2 20 0 8 7 -12 8 -11 10 5 11
11 1 24 1 28 0 5 -1 6 3 2 9 -3 5 -7 10 -8 9 -1 0 -14 -5 -29 -11z"/>
<path d="M2010 220 c0 -5 5 -10 11 -10 5 0 7 5 4 10 -3 6 -8 10 -11 10 -2 0
-4 -4 -4 -10z"/>
<path d="M1130 206 c0 -2 7 -7 16 -10 8 -3 12 -2 9 4 -6 10 -25 14 -25 6z"/>
<path d="M1670 161 c0 -6 4 -12 8 -15 5 -3 9 1 9 9 0 8 -4 15 -9 15 -4 0 -8
-4 -8 -9z"/>
<path d="M1750 162 c0 -5 7 -9 15 -9 8 0 12 4 9 9 -7 10 -24 10 -24 0z"/>
<path d="M1437 153 c-4 -3 -7 -11 -7 -17 0 -6 5 -5 12 2 6 6 9 14 7 17 -3 3
-9 2 -12 -2z"/>
<path d="M1465 149 c-4 -6 -4 -13 -1 -16 3 -4 6 -1 6 7 0 10 4 10 18 -1 15
-13 16 -12 3 4 -16 20 -18 20 -26 6z"/>
</g>
</svg>
